<?xml version="1.0" standalone="no"?>
<!DOCTYPE svg PUBLIC "-//W3C//DTD SVG 20010904//EN"
 "http://www.w3.org/TR/2001/REC-SVG-20010904/DTD/svg10.dtd">
<svg version="1.0" xmlns="http://www.w3.org/2000/svg"
 width="274.000000pt" height="290.000000pt" viewBox="0 0 274.000000 290.000000"
 preserveAspectRatio="xMidYMid meet">
<metadata>
Created by potrace 1.16, written by Peter Selinger 2001-2019
</metadata>
<g transform="translate(0.000000,290.000000) scale(0.100000,-0.100000)"
fill="#000000" stroke="none">
<path d="M1215 2881 c-54 -25 -137 -115 -160 -174 -15 -39 -17 -67 -13 -160 5
-100 8 -119 32 -160 29 -49 83 -101 122 -119 21 -10 24 -18 24 -66 l0 -55
-169 6 c-185 6 -217 14 -239 60 -11 22 -20 27 -47 27 -24 0 -39 -6 -47 -20
-10 -15 -24 -20 -54 -20 -36 0 -47 -6 -78 -40 -35 -39 -36 -43 -36 -117 0 -57
4 -81 16 -95 14 -15 17 -49 18 -233 l2 -214 28 -30 c40 -42 104 -61 200 -61
l81 0 43 -100 c23 -55 42 -109 42 -119 0 -23 -26 -31 -101 -31 -81 0 -112 14
-132 59 -27 60 -91 155 -122 179 -42 33 -123 31 -165 -4 -17 -15 -37 -39 -45
-55 l-15 -29 -33 20 c-36 22 -109 27 -125 8 -5 -7 -18 -46 -28 -85 l-18 -73
-67 0 c-58 0 -72 -4 -98 -26 -30 -25 -31 -29 -31 -106 0 -68 5 -90 30 -145 44
-95 85 -143 120 -143 23 0 35 -9 55 -37 14 -21 25 -43 25 -49 0 -23 47 -54 81
-54 39 0 65 22 93 78 l17 33 60 -90 c86 -129 207 -239 344 -314 31 -17 58 -29
165 -73 181 -74 241 -114 301 -201 27 -39 34 -43 72 -43 39 0 48 5 102 60 62
63 176 144 285 202 36 19 95 53 132 76 65 40 66 40 84 21 13 -14 28 -19 53
-17 35 3 36 4 39 50 3 45 7 50 135 178 72 73 133 127 135 121 2 -5 12 -21 23
-35 17 -21 29 -26 68 -26 44 0 81 20 81 43 0 4 11 25 25 47 20 32 31 40 54 40
61 0 153 165 159 286 4 70 4 70 -32 102 -33 29 -43 32 -99 32 l-62 0 -25 103
-25 102 -37 3 c-24 2 -53 -5 -87 -23 l-51 -25 -31 35 c-24 27 -39 35 -65 35
l-34 0 0 206 0 206 -30 29 -29 30 22 8 c13 5 38 26 56 47 32 36 33 39 29 110
-3 70 -5 75 -43 114 -39 39 -40 40 -112 40 -67 0 -75 -2 -108 -31 l-36 -32
-212 7 c-116 4 -215 10 -219 12 -5 3 -8 25 -8 49 0 34 4 45 19 50 11 3 44 33
75 65 40 44 59 74 70 114 21 70 21 199 0 260 -20 58 -105 153 -159 177 -57 26
-233 26 -290 0z m183 -201 c19 -12 41 -38 52 -62 16 -37 17 -45 5 -69 -20 -37
-72 -79 -99 -79 -52 0 -112 78 -101 129 6 28 42 69 80 89 26 15 25 15 63 -8z
m-432 -707 c41 -3 84 -1 102 5 l29 10 -1 -43 c0 -24 -4 -41 -8 -39 -4 3 -10
-15 -15 -38 -8 -40 -11 -42 -58 -55 -28 -7 -96 -13 -153 -13 -112 0 -154 13
-201 64 -21 22 -23 29 -13 51 9 20 17 24 36 19 32 -8 88 11 112 37 15 17 26
20 59 15 22 -4 72 -9 111 -13z m1043 -81 c36 -12 68 -19 72 -16 4 2 11 -1 15
-7 5 -8 2 -10 -7 -5 -8 4 -5 1 5 -8 10 -8 22 -13 27 -11 18 12 27 -25 27 -110
0 -27 0 -89 0 -137 l1 -87 -72 39 c-148 80 -365 81 -743 4 -98 -20 -199 -40
-225 -44 -25 -5 -65 -14 -90 -21 -24 -7 -93 -13 -154 -13 -95 -1 -116 2 -152
21 -23 13 -45 28 -50 35 -4 7 -8 78 -8 158 l0 146 45 -25 c35 -20 62 -26 130
-29 74 -3 125 4 389 57 167 34 312 61 323 61 10 0 17 3 15 8 -3 4 83 6 191 6
170 -1 206 -4 261 -22z m-34 -316 c61 -15 143 -55 165 -81 7 -8 9 -22 6 -31
-7 -19 -48 -16 -136 11 -65 19 -205 13 -253 -11 -35 -19 -41 -15 -27 20 5 15
10 45 10 67 l0 39 88 0 c48 0 114 -7 147 -14z m-261 -63 c-11 -8 -13 -13 -5
-13 13 0 11 -23 -5 -65 -6 -14 -1 -14 32 4 50 27 53 27 65 -9 6 -16 14 -28 19
-25 4 2 5 -6 3 -18 -2 -12 9 -61 25 -109 28 -87 28 -88 8 -89 -20 0 -20 -1 2
-9 12 -5 25 -17 29 -26 11 -29 -25 -44 -103 -44 -86 0 -182 -27 -245 -70 l-44
-29 -12 62 c-6 34 -8 65 -4 70 22 23 152 50 248 51 70 1 94 4 75 9 -89 26
-250 -4 -421 -80 -97 -43 -113 -47 -187 -47 -100 -1 -118 10 -109 66 6 32 4
37 -9 32 -11 -4 -17 4 -22 33 -10 54 -35 114 -45 107 -5 -3 -6 2 -3 10 3 8 0
24 -6 37 -11 20 -10 21 6 15 11 -4 42 -10 70 -13 44 -5 77 3 260 66 115 39
234 73 264 76 112 12 120 14 121 38 1 19 2 20 6 3 3 -12 -2 -25 -13 -33z m303
-118 l52 -16 -35 -56 c-20 -30 -45 -76 -56 -100 -11 -24 -24 -43 -31 -40 -10
3 -85 199 -86 226 -1 17 77 10 156 -14z m-1464 -15 c-38 -9 -60 -25 -74 -54
-7 -13 -2 -11 13 7 16 19 38 31 66 37 23 4 39 4 37 0 -5 -9 15 -28 30 -29 5
-1 10 -9 10 -19 0 -9 5 -16 11 -15 7 1 11 -5 10 -15 0 -9 4 -16 11 -15 8 2 10
-4 6 -14 -5 -12 -3 -14 7 -8 8 5 11 4 7 -3 -9 -13 2 -44 13 -37 5 3 12 0 16
-6 5 -8 3 -9 -6 -4 -10 6 -12 4 -7 -9 4 -10 7 -23 7 -29 0 -7 4 -6 10 3 7 11
8 5 4 -20 -8 -43 -11 -46 -54 -58 l-35 -10 33 -1 c18 -1 32 -6 32 -13 0 -19
50 -122 56 -116 2 3 -5 22 -17 42 -12 20 -20 39 -18 41 2 2 31 -6 64 -17 113
-39 379 -35 588 8 90 19 97 18 97 -8 0 -13 4 -29 9 -37 7 -10 11 -9 22 6 44
61 178 113 293 113 48 0 79 5 92 15 27 20 113 19 136 -2 24 -22 23 -40 -7 -98
-13 -27 -23 -51 -21 -53 5 -5 56 99 56 115 0 8 13 13 33 14 30 1 30 2 -10 11
-38 8 -43 13 -43 36 0 15 11 51 25 80 14 30 22 58 19 63 -3 5 0 8 7 7 6 -2 14
3 17 11 3 9 0 11 -9 6 -8 -5 -11 -4 -6 1 5 5 14 9 20 9 5 0 12 6 15 14 3 9 0
11 -8 6 -9 -5 -11 -4 -6 4 4 6 11 9 15 6 5 -2 17 5 27 17 18 20 18 21 1 15
-10 -4 -16 -3 -13 1 7 12 104 6 121 -8 9 -7 21 -23 26 -34 6 -12 -1 -6 -16 12
-15 17 -30 32 -35 32 -4 0 5 -14 21 -31 16 -17 29 -35 29 -41 0 -5 4 -7 9 -3
5 3 13 0 17 -6 4 -8 3 -9 -4 -5 -17 10 -15 5 14 -63 15 -33 31 -58 38 -55 16
6 76 -33 76 -51 0 -11 5 -13 26 -5 14 6 37 10 50 10 14 0 23 3 21 7 -3 5 28 8
68 8 40 0 71 -3 69 -6 -2 -4 3 -9 11 -13 8 -3 15 -13 15 -23 0 -13 3 -14 8 -6
5 8 8 -1 8 -22 0 -19 -4 -31 -10 -28 -5 4 -7 -3 -4 -15 4 -12 2 -20 -2 -17
-12 7 -23 -32 -14 -46 5 -8 3 -9 -6 -4 -10 6 -12 4 -7 -9 5 -11 3 -15 -5 -10
-8 5 -9 2 -5 -10 5 -11 3 -15 -5 -10 -8 5 -9 2 -5 -10 4 -11 3 -15 -4 -11 -6
4 -9 0 -7 -11 2 -11 -3 -19 -12 -19 -8 0 -15 -8 -15 -17 0 -10 -6 -23 -14 -30
-11 -11 -12 -10 -6 1 6 11 4 13 -10 7 -10 -4 -28 0 -41 9 -23 15 -23 15 -14
-9 7 -19 5 -28 -8 -38 -16 -12 -16 -11 -2 7 14 19 14 19 -3 6 -10 -8 -16 -20
-13 -28 3 -8 2 -11 -4 -8 -12 8 -33 -33 -26 -51 3 -8 2 -13 -3 -9 -5 3 -11 0
-13 -7 -3 -7 -11 -9 -24 -3 -10 4 -22 8 -26 7 -4 -1 -4 6 -1 15 4 11 3 14 -5
9 -8 -5 -10 -1 -5 10 4 11 2 15 -4 11 -6 -4 -9 4 -6 21 3 24 2 25 -7 7 -8 -16
-9 -12 -5 20 2 22 5 72 5 110 0 84 10 106 36 84 16 -13 17 -12 7 6 -9 15 -8
26 3 48 9 16 14 33 12 39 -2 6 -12 -8 -22 -30 l-19 -41 -31 24 c-43 33 -67 34
-96 5 -14 -14 -25 -28 -25 -32 0 -3 -4 -10 -9 -15 -5 -5 -6 -3 -2 5 4 6 3 12
-2 12 -13 0 -33 -25 -26 -32 3 -3 -3 -5 -13 -5 -10 1 -17 -4 -15 -11 1 -8 -2
-11 -7 -7 -6 3 -27 -4 -48 -15 -36 -21 -37 -21 -8 -16 l30 6 2 -67 c2 -38 5
-78 8 -90 5 -22 5 -22 -46 4 -76 40 -186 42 -349 8 -454 -95 -581 -115 -737
-115 -160 0 -273 29 -335 88 -25 23 -28 33 -28 88 l0 63 53 -6 c45 -5 55 -3
61 12 5 14 4 16 -8 6 -14 -12 -127 -12 -120 0 2 4 -23 23 -56 43 -32 20 -71
49 -86 65 -23 25 -31 28 -57 20 -16 -5 -37 -15 -47 -24 -23 -21 -27 -20 -49
23 -11 20 -20 30 -20 22 0 -8 6 -26 13 -40 11 -18 11 -30 3 -45 -9 -18 -9 -19
7 -6 26 22 36 -1 36 -84 0 -38 3 -88 5 -110 4 -32 3 -36 -5 -20 -9 18 -10 17
-7 -7 3 -17 0 -25 -6 -21 -6 4 -8 0 -4 -11 5 -11 3 -15 -5 -10 -7 5 -9 2 -5
-8 5 -15 -20 -48 -37 -48 -5 0 0 8 11 18 10 9 13 13 6 8 -8 -5 -18 -4 -26 3
-8 6 -16 8 -20 5 -3 -3 -3 4 0 17 4 14 2 20 -4 16 -6 -4 -10 1 -9 11 0 9 -4
16 -11 15 -7 -2 -10 3 -7 11 3 7 -3 19 -13 27 -17 13 -17 13 -3 -6 14 -18 14
-19 -2 -7 -13 11 -15 19 -7 38 12 34 11 41 -3 21 -7 -9 -25 -21 -40 -26 -29
-11 -42 -2 -43 29 0 8 -7 15 -15 15 -9 0 -14 8 -12 19 2 10 -1 16 -6 13 -4 -4
-8 4 -8 16 1 13 -4 21 -12 19 -8 -1 -11 2 -8 7 8 12 -14 72 -24 66 -4 -3 -6 5
-2 17 3 11 1 19 -4 16 -5 -4 -9 9 -10 28 0 21 3 30 8 22 6 -10 8 -9 8 3 0 9 7
20 16 23 8 3 13 9 11 13 -3 5 30 8 73 8 43 0 77 -2 75 -5 -2 -3 16 -10 41 -16
35 -8 44 -8 44 3 0 16 41 44 69 46 14 1 26 15 41 48 23 55 24 63 8 53 -7 -4
-8 -3 -4 5 4 6 12 9 17 6 9 -6 10 -5 14 34 3 34 58 81 93 80 26 -1 26 -1 -5
-9z m511 -292 c-4 -35 -11 -69 -17 -75 -19 -26 -237 -2 -304 32 -31 15 -47 55
-23 55 6 0 10 7 10 16 0 14 7 15 38 10 20 -4 64 -9 97 -11 52 -3 55 -3 20 5
-31 6 -24 7 35 4 67 -3 84 -1 148 25 2 0 0 -27 -4 -61z m991 -300 c50 -19 95
-57 95 -81 0 -31 -25 -64 -63 -83 -26 -14 -47 -15 -132 -8 -55 4 -135 8 -177
7 -43 0 -78 3 -78 8 0 13 21 101 31 125 6 18 21 24 81 34 40 6 80 13 88 15 25
6 123 -5 155 -17z m-253 -203 c10 -13 40 -31 66 -39 100 -29 152 -60 152 -91
0 -10 -8 -9 -35 5 -22 11 -71 20 -136 25 -105 7 -148 17 -161 38 -40 63 67
121 114 62z"/>
</g>
</svg>
